<svg version="1.2" xmlns="http://www.w3.org/2000/svg" viewBox="0 0 1080 1080" width="1080" height="1080"><defs><linearGradient id="P" gradientUnits="userSpaceOnUse"/><radialGradient id="g1" cx="540" cy="358" r="24.7" href="#P"><stop stop-color="#ffffff"/><stop offset=".3" stop-color="#eaeaea"/><stop offset="1" stop-color="#b4b4b4"/><stop offset="1" stop-color="#b2b2b2"/></radialGradient><radialGradient id="g2" cx="492.8" cy="405.3" r="24.7" href="#P"><stop stop-color="#ffffff"/><stop offset=".3" stop-color="#eaeaea"/><stop offset="1" stop-color="#b4b4b4"/><stop offset="1" stop-color="#b2b2b2"/></radialGradient><radialGradient id="g3" cx="540" cy="353" r="243.3" href="#P"><stop stop-color="#ffffff"/><stop offset=".3" stop-color="#eaeaea"/><stop offset="1" stop-color="#b4b4b4"/><stop offset="1" stop-color="#b2b2b2"/></radialGradient></defs><style>tspan{white-space:pre}.s0{fill:#2f043f}.s1{fill:url(#g1)}.s2{fill:url(#g2)}.s3{fill:url(#g3)}.t4{font-size: 78px;fill: #000000;font-weight: 400;font-family: "LiberationSans", "Liberation Sans"}.t5{font-size: 32px;fill: #000000;font-weight: 400;font-family: "LiberationSans", "Liberation Sans"}</style><path class="s0" d="m540.3 556.1l-1 1l-1.1-1z" /><path class="s1" d="m540 382.8c-13.7 0-24.7-11.1-24.7-24.8c0-13.6 11-24.7 24.7-24.7c13.7 0 24.7 11.1 24.7 24.7c0 13.7-11 24.8-24.7 24.8z" /><path class="s2" d="m492.8 430c-13.7 0-24.8-11.1-24.8-24.7c0-13.7 11.1-24.7 24.8-24.7c13.6 0 24.7 11 24.7 24.7c0 13.6-11.1 24.7-24.7 24.7z" /><path class="s3" d="m731.8 438c2.2 51.6-19.8 90.2-27.8 104.2c-37.9 65.3-100.3 88.7-119.1 95c14.7-8.3 61.3-37.3 85-97c5.4-13.8 25.9-70.2 4.4-129.3c-16.8-45.8-43.9-52.3-97.8-130.2c-16.9-24.5-29.3-45.6-37.1-59.6c-8.1 15.9-20.6 38.9-38 65.1c-55.5 84-87.8 91.7-99.5 136.7c-12.8 48.7 3 124 58.3 148.8c38.9 17.5 88.9 6.2 128.2-26.9q0 0 0.1-0.1c0-0.1 0.1-0.1 0.1-0.1c-41.1-5.2-71-40.5-69.5-79.2c1.4-37.7 32.6-74.2 72.7-72.6c34.2 1.3 64.3 30 67.8 67.9c0.5 5.8 1.5 12.3 0.6 22.6c-7.7 79.6-69.9 124.6-69.9 124.6c-10.8 7.8-39.7 28-82.5 30.4c-43.5 2.5-74.8-15-81.4-18.8c-39.5-23-55.8-58.6-62.9-74.8c-24-54.6-16.7-113.2-0.5-152.6c13.5-32.8 41.1-71.6 49-82.8c17.9-25.1 22.2-30.7 22.2-30.7c10.7-14.5 15.9-20.9 21.4-29c0 0 4.2-6.4 8.4-13.4c16.1-26.7 36.3-74.7 38.5-80.1c3.8-9.3 6.2-16.4 6.5-17.6c1.5-4.6 8.1-21 29.7-71.2c20.2 73.7 43.3 114.6 60.3 138.1c5.6 7.6 31.3 42.1 55 73.5c19.5 26 18.1 23.8 20.4 27c29.7 43 55.2 80 57.4 132.1z" /><text style="transform: matrix(1,0,0,1,402.93,721.517)" ><tspan x="0" y="0" class="t4">WAKTU
</tspan></text><text style="transform: matrix(1,0,0,1,422.387,761.801)" ><tspan x="0" y="0" class="t5">wakaf untuk umat
</tspan></text></svg>